<svg width="212" height="46" viewBox="0 0 212 46" fill="none" xmlns="http://www.w3.org/2000/svg">
<path fill-rule="evenodd" clip-rule="evenodd" d="M49.2289 7.38598C51.2686 7.38598 52.9388 5.73255 52.9388 3.69293C52.9388 1.65331 51.2686 -0.00012207 49.2289 -0.00012207C47.1893 -0.00012207 45.5191 1.65331 45.5191 3.69293C45.5191 5.73255 47.1893 7.38598 49.2289 7.38598ZM49.2284 11.079C47.1795 11.079 45.5186 12.74 45.5186 14.7889V36.9135C45.5186 38.9625 47.1795 40.6234 49.2284 40.6234C51.2774 40.6234 52.9383 38.9625 52.9383 36.9135L52.9383 14.7889C52.9383 12.74 51.2774 11.079 49.2284 11.079Z" fill="#1777CF"/>
<path d="M153.105 40.6234C151.056 40.6234 149.396 38.9625 149.396 36.9136L149.396 3.70977C149.396 1.66086 151.056 -0.000121966 153.105 -0.00012207C155.154 -0.000122175 156.815 1.66085 156.815 3.70977L156.815 36.9135C156.815 38.9625 155.154 40.6234 153.105 40.6234Z" fill="#1777CF"/>
<path fill-rule="evenodd" clip-rule="evenodd" d="M90.0371 33.2121C90.0371 37.3053 93.3553 40.6235 97.4485 40.6235L97.4569 40.6235L104.877 40.6235L104.885 40.6235C108.978 40.6235 112.297 37.3052 112.297 33.2119L112.297 3.70979C112.297 1.66088 110.636 -9.62678e-05 108.587 -9.61783e-05C106.538 -9.60887e-05 104.877 1.66088 104.877 3.70979L104.877 5.53949C104.877 8.59891 102.397 11.0791 99.3373 11.0791L97.4569 11.0791C93.3591 11.0791 90.0371 14.401 90.0371 18.4988L90.0371 33.2121ZM101.167 14.7721C99.1179 14.7721 97.4569 16.4331 97.4569 18.4821L97.4569 33.2204C97.4569 35.2694 99.1179 36.9304 101.167 36.9304C103.216 36.9304 104.877 35.2694 104.877 33.2204L104.877 18.4821C104.877 16.4331 103.216 14.7721 101.167 14.7721Z" fill="#1777CF"/>
<path fill-rule="evenodd" clip-rule="evenodd" d="M171.646 40.6235C167.553 40.6235 164.234 37.3053 164.234 33.2121L164.234 29.5611C164.234 25.4726 167.549 22.1582 171.637 22.1582L171.646 22.1582L175.381 22.1582C177.421 22.1582 179.074 20.5048 179.074 18.4652C179.074 16.4256 177.421 14.7721 175.381 14.7721L173.501 14.7721C172.481 14.7721 171.654 13.9454 171.654 12.9256C171.654 11.9058 172.481 11.0791 173.501 11.0791L179.074 11.0791L179.082 11.0791C183.176 11.0791 186.494 14.3973 186.494 18.4906L186.494 33.2119C186.494 37.3052 183.176 40.6235 179.082 40.6235L179.074 40.6235L171.654 40.6235L171.646 40.6235ZM175.364 25.8513C177.413 25.8513 179.074 27.5123 179.074 29.5612L179.074 33.2205C179.074 35.2694 177.413 36.9304 175.364 36.9304C173.315 36.9304 171.654 35.2694 171.654 33.2204L171.654 29.5612C171.654 27.5123 173.315 25.8513 175.364 25.8513Z" fill="#1777CF"/>
<path fill-rule="evenodd" clip-rule="evenodd" d="M195.306 36.9135C195.306 38.9624 196.967 40.6234 199.016 40.6234C201.064 40.6234 202.725 38.9624 202.725 36.9135L202.725 22.2003C202.725 18.0978 206.051 14.7721 210.154 14.7721C211.173 14.7721 212 13.9453 212 12.9255C212 11.9057 211.173 11.079 210.154 11.079L202.725 11.079L202.717 11.079C198.624 11.079 195.306 14.3972 195.306 18.4904L195.306 36.9135Z" fill="#1777CF"/>
<path fill-rule="evenodd" clip-rule="evenodd" d="M75.2068 11.079C79.3 11.079 82.6182 14.3972 82.6182 18.4904L82.6182 36.9136C82.6182 38.9625 80.9572 40.6235 78.9083 40.6235C76.8594 40.6235 75.1984 38.9625 75.1984 36.9136L75.1984 18.4821C75.1984 16.4331 73.5374 14.7721 71.4884 14.7721C69.4395 14.7721 67.7784 16.4331 67.7784 18.4821L67.7784 36.9136C67.7784 38.9625 66.1175 40.6234 64.0685 40.6234C62.0196 40.6234 60.3587 38.9625 60.3587 36.9136L60.3587 18.4906C60.3587 14.3973 63.6769 11.079 67.7702 11.079L67.7784 11.079L75.1984 11.079L75.2068 11.079Z" fill="#1777CF"/>
<path fill-rule="evenodd" clip-rule="evenodd" d="M127.128 40.6235C123.035 40.6235 119.717 37.3053 119.717 33.2121L119.717 14.789C119.717 12.74 121.378 11.0791 123.427 11.0791C125.476 11.0791 127.137 12.74 127.137 14.789L127.137 33.2204C127.137 35.2694 128.798 36.9304 130.847 36.9304C132.896 36.9304 134.557 35.2694 134.557 33.2204L134.557 14.789C134.557 12.74 136.218 11.0791 138.266 11.0791C140.315 11.0791 141.976 12.74 141.976 14.789L141.976 33.2119C141.976 37.3052 138.658 40.6235 134.565 40.6235L134.557 40.6235L127.137 40.6235L127.128 40.6235Z" fill="#1777CF"/>
<path fill-rule="evenodd" clip-rule="evenodd" d="M5.59829 8.00153C3.48534 8.00153 1.77246 9.70663 1.77246 11.81V37.1997C1.77246 39.3031 3.48534 41.0082 5.59829 41.0082C7.71123 41.0082 9.42411 39.3031 9.42411 37.1997L9.42411 24.928C9.42411 23.0584 10.9467 21.5427 12.8248 21.5427C14.703 21.5427 16.2256 23.0584 16.2256 24.928V34.6606C16.2256 36.764 17.9385 38.4691 20.0514 38.4691C22.1643 38.4691 23.8772 36.764 23.8772 34.6606L23.8772 27.467C23.8772 25.5973 25.3998 24.0817 27.278 24.0817C29.1561 24.0817 30.6787 25.5973 30.6787 27.467L30.6787 37.1996C30.6787 39.3029 32.3916 41.008 34.5045 41.008C36.6175 41.008 38.3303 39.3029 38.3303 37.1996L38.3303 15.1951C38.3303 13.0918 36.6175 11.3867 34.5045 11.3867C32.3916 11.3867 30.6787 13.0918 30.6787 15.1951V15.6184C30.6787 17.4881 29.1561 19.0037 27.278 19.0037C25.3998 19.0037 23.8772 17.4881 23.8772 15.6184V15.1951C23.8772 13.0918 22.1643 11.3867 20.0514 11.3867L19.2013 11.3867C17.5578 11.3867 16.2256 12.7129 16.2256 14.3489C16.2256 15.9849 14.8933 17.3111 13.2499 17.3111H12.8248C10.9467 17.3111 9.42411 15.7954 9.42411 13.9258L9.42411 11.81C9.42411 9.70663 7.71123 8.00153 5.59829 8.00153Z" fill="#1777CF"/>
</svg>
