<svg width="24" height="25" viewBox="0 0 24 25" fill="none" xmlns="http://www.w3.org/2000/svg">
<path d="M19 11.6234H5C3.89543 11.6234 3 12.5188 3 13.6234V20.6234C3 21.728 3.89543 22.6234 5 22.6234H19C20.1046 22.6234 21 21.728 21 20.6234V13.6234C21 12.5188 20.1046 11.6234 19 11.6234Z" stroke="#74ADE2" stroke-width="2" stroke-linecap="round" stroke-linejoin="round"/>
<path d="M7 11.6234V7.62341C7 6.29733 7.52678 5.02556 8.46447 4.08788C9.40215 3.1502 10.6739 2.62341 12 2.62341C13.3261 2.62341 14.5979 3.1502 15.5355 4.08788C16.4732 5.02556 17 6.29733 17 7.62341V11.6234" stroke="#74ADE2" stroke-width="2" stroke-linecap="round" stroke-linejoin="round"/>
</svg>
