<svg width="435" height="435" viewBox="0 0 435 435" fill="none" xmlns="http://www.w3.org/2000/svg">
<circle cx="209.344" cy="134.306" r="13.05" stroke="#1268B7" stroke-width="2.175"/>
<path d="M204.188 115.9C196.525 118.047 192.053 126 194.2 133.663L221.95 125.888C219.803 118.225 211.851 113.753 204.188 115.9Z" fill="#F7BC49"/>
<line x1="213.913" y1="126.99" x2="229.758" y2="122.668" stroke="#F7BC49" stroke-width="2.175" stroke-linecap="round"/>
<path d="M304.923 300.79L294.888 293.722C294.145 293.198 293.154 293.193 292.404 293.708L279.056 302.881C278.466 303.287 278.113 303.957 278.113 304.673L278.113 313.12C278.113 314.316 279.078 315.288 280.274 315.295L323.357 315.566C324.752 315.575 325.794 314.287 325.495 312.925L324.751 309.531C324.594 308.817 324.089 308.23 323.407 307.967L305.395 301.042C305.228 300.978 305.069 300.894 304.923 300.79Z" fill="#F9CD77"/>
<path d="M144.324 299.513L144.34 296.32C144.347 295.123 145.319 294.156 146.515 294.156L169.17 294.156C170.361 294.156 171.33 295.114 171.345 296.304L171.552 313.086C171.567 314.279 170.618 315.261 169.426 315.288L127.183 316.232C125.963 316.259 124.96 315.277 124.96 314.057L124.96 309.934C124.96 309.034 125.514 308.227 126.354 307.904L142.929 301.531C143.766 301.21 144.319 300.409 144.324 299.513Z" fill="#F9CD77"/>
<path d="M143.703 294.862L143.761 299.154C143.774 300.065 143.217 300.887 142.367 301.214L125.519 307.692C124.836 307.954 124.332 308.542 124.175 309.256L123.43 312.649C123.131 314.011 124.174 315.299 125.568 315.29L168.625 315.02C169.831 315.012 170.801 314.025 170.786 312.819L170.537 292.321" stroke="#1268B7" stroke-width="2.175" stroke-linecap="round"/>
<path d="M293.651 292.851L304.923 300.79C305.069 300.894 305.228 300.978 305.395 301.042L323.407 307.967C324.089 308.23 324.594 308.817 324.751 309.531L325.495 312.925C325.794 314.287 324.752 315.575 323.357 315.566L280.274 315.295C279.078 315.288 278.113 314.316 278.113 313.12L278.113 303.529" stroke="#1268B7" stroke-width="2.175" stroke-linecap="round"/>
<path d="M173.493 225.656L149.073 234.347C142.696 236.616 138.437 242.652 138.437 249.421V287.672C138.437 289.881 140.228 291.672 142.437 291.672H173.648C175.857 291.672 177.648 289.881 177.648 287.672V270.587C177.648 266.851 179.956 263.504 183.447 262.176L206.221 253.51C207.97 252.845 209.944 253.211 211.337 254.46L268.62 305.822C270.182 307.222 272.559 307.178 274.068 305.722L297.47 283.136C299.108 281.555 299.099 278.928 297.449 277.359L243.086 225.656" stroke="#1268B7" stroke-width="2.175" stroke-linecap="round" stroke-linejoin="round"/>
<mask id="path-9-outside-1_946:37984" maskUnits="userSpaceOnUse" x="95.9624" y="317.269" width="258" height="77" fill="black">
<rect fill="white" x="95.9624" y="317.269" width="258" height="77"/>
<path fill-rule="evenodd" clip-rule="evenodd" d="M261 328.969C261 324.164 264.895 320.269 269.7 320.269H342.019C347.124 320.269 351.262 324.407 351.262 329.513C351.262 334.618 347.124 338.756 342.019 338.756H294.712C289.908 338.756 286.012 342.651 286.012 347.456C286.012 352.261 289.908 356.156 294.712 356.156H304.772C309.727 356.156 313.744 360.173 313.744 365.128C313.744 370.083 309.727 374.1 304.772 374.1H256.378C251.423 374.1 247.406 370.083 247.406 365.128C247.406 360.173 243.389 356.156 238.434 356.156H224.569H215.325H198.469C193.664 356.156 189.769 360.051 189.769 364.856C189.769 369.661 193.664 373.556 198.469 373.556H208.528C213.483 373.556 217.5 377.573 217.5 382.528C217.5 387.483 213.483 391.5 208.528 391.5H171.281C166.476 391.5 162.581 387.605 162.581 382.8C162.581 377.995 158.686 374.1 153.881 374.1H128.053C123.098 374.1 119.081 370.083 119.081 365.128C119.081 360.173 123.098 356.156 128.053 356.156H135.394C140.199 356.156 144.094 352.261 144.094 347.456C144.094 342.651 140.199 338.756 135.394 338.756H108.206C103.101 338.756 98.9624 334.618 98.9624 329.513C98.9624 324.407 103.101 320.269 108.206 320.269H193.031C197.836 320.269 201.731 324.164 201.731 328.969C201.731 333.774 205.626 337.669 210.431 337.669H215.325H224.569H252.3C257.105 337.669 261 333.774 261 328.969Z"/>
</mask>
<path fill-rule="evenodd" clip-rule="evenodd" d="M261 328.969C261 324.164 264.895 320.269 269.7 320.269H342.019C347.124 320.269 351.262 324.407 351.262 329.513C351.262 334.618 347.124 338.756 342.019 338.756H294.712C289.908 338.756 286.012 342.651 286.012 347.456C286.012 352.261 289.908 356.156 294.712 356.156H304.772C309.727 356.156 313.744 360.173 313.744 365.128C313.744 370.083 309.727 374.1 304.772 374.1H256.378C251.423 374.1 247.406 370.083 247.406 365.128C247.406 360.173 243.389 356.156 238.434 356.156H224.569H215.325H198.469C193.664 356.156 189.769 360.051 189.769 364.856C189.769 369.661 193.664 373.556 198.469 373.556H208.528C213.483 373.556 217.5 377.573 217.5 382.528C217.5 387.483 213.483 391.5 208.528 391.5H171.281C166.476 391.5 162.581 387.605 162.581 382.8C162.581 377.995 158.686 374.1 153.881 374.1H128.053C123.098 374.1 119.081 370.083 119.081 365.128C119.081 360.173 123.098 356.156 128.053 356.156H135.394C140.199 356.156 144.094 352.261 144.094 347.456C144.094 342.651 140.199 338.756 135.394 338.756H108.206C103.101 338.756 98.9624 334.618 98.9624 329.513C98.9624 324.407 103.101 320.269 108.206 320.269H193.031C197.836 320.269 201.731 324.164 201.731 328.969C201.731 333.774 205.626 337.669 210.431 337.669H215.325H224.569H252.3C257.105 337.669 261 333.774 261 328.969Z" fill="white"/>
<path d="M342.019 318.094H269.7V322.444H342.019V318.094ZM294.712 340.931H342.019V336.581H294.712V340.931ZM294.712 358.331H304.772V353.981H294.712V358.331ZM304.772 371.925H256.378V376.275H304.772V371.925ZM224.569 358.331H238.434V353.981H224.569V358.331ZM215.325 358.331H224.569V353.981H215.325V358.331ZM198.469 358.331H215.325V353.981H198.469V358.331ZM208.528 371.381H198.469V375.731H208.528V371.381ZM171.281 393.675H208.528V389.325H171.281V393.675ZM128.053 376.275H153.881V371.925H128.053V376.275ZM135.394 353.981H128.053V358.331H135.394V353.981ZM108.206 340.931H135.394V336.581H108.206V340.931ZM193.031 318.094H108.206V322.444H193.031V318.094ZM215.325 335.494H210.431V339.844H215.325V335.494ZM224.569 335.494H215.325V339.844H224.569V335.494ZM252.3 335.494H224.569V339.844H252.3V335.494ZM252.3 339.844C258.306 339.844 263.175 334.975 263.175 328.969H258.825C258.825 332.572 255.904 335.494 252.3 335.494V339.844ZM101.137 329.513C101.137 325.609 104.302 322.444 108.206 322.444V318.094C101.9 318.094 96.7874 323.206 96.7874 329.513H101.137ZM108.206 336.581C104.302 336.581 101.137 333.417 101.137 329.513H96.7874C96.7874 335.819 101.9 340.931 108.206 340.931V336.581ZM146.269 347.456C146.269 341.45 141.4 336.581 135.394 336.581V340.931C138.997 340.931 141.919 343.853 141.919 347.456H146.269ZM135.394 358.331C141.4 358.331 146.269 353.462 146.269 347.456H141.919C141.919 351.06 138.997 353.981 135.394 353.981V358.331ZM121.256 365.128C121.256 361.374 124.299 358.331 128.053 358.331V353.981C121.897 353.981 116.906 358.972 116.906 365.128H121.256ZM128.053 371.925C124.299 371.925 121.256 368.882 121.256 365.128H116.906C116.906 371.284 121.897 376.275 128.053 376.275V371.925ZM164.756 382.8C164.756 376.794 159.887 371.925 153.881 371.925V376.275C157.485 376.275 160.406 379.196 160.406 382.8H164.756ZM171.281 389.325C167.678 389.325 164.756 386.404 164.756 382.8H160.406C160.406 388.806 165.275 393.675 171.281 393.675V389.325ZM215.325 382.528C215.325 386.282 212.282 389.325 208.528 389.325V393.675C214.684 393.675 219.675 388.684 219.675 382.528H215.325ZM208.528 375.731C212.282 375.731 215.325 378.774 215.325 382.528H219.675C219.675 376.372 214.684 371.381 208.528 371.381V375.731ZM249.581 365.128C249.581 358.972 244.591 353.981 238.434 353.981V358.331C242.188 358.331 245.231 361.374 245.231 365.128H249.581ZM256.378 371.925C252.624 371.925 249.581 368.882 249.581 365.128H245.231C245.231 371.284 250.222 376.275 256.378 376.275V371.925ZM311.569 365.128C311.569 368.882 308.526 371.925 304.772 371.925V376.275C310.928 376.275 315.919 371.284 315.919 365.128H311.569ZM304.772 358.331C308.526 358.331 311.569 361.374 311.569 365.128H315.919C315.919 358.972 310.928 353.981 304.772 353.981V358.331ZM283.837 347.456C283.837 353.462 288.706 358.331 294.712 358.331V353.981C291.109 353.981 288.188 351.06 288.188 347.456H283.837ZM294.712 336.581C288.706 336.581 283.837 341.45 283.837 347.456H288.188C288.188 343.853 291.109 340.931 294.712 340.931V336.581ZM349.087 329.513C349.087 333.417 345.923 336.581 342.019 336.581V340.931C348.325 340.931 353.438 335.819 353.438 329.513H349.087ZM187.594 364.856C187.594 370.862 192.463 375.731 198.469 375.731V371.381C194.865 371.381 191.944 368.46 191.944 364.856H187.594ZM199.556 328.969C199.556 334.975 204.425 339.844 210.431 339.844V335.494C206.827 335.494 203.906 332.572 203.906 328.969H199.556ZM269.7 318.094C263.694 318.094 258.825 322.963 258.825 328.969H263.175C263.175 325.365 266.096 322.444 269.7 322.444V318.094ZM198.469 353.981C192.463 353.981 187.594 358.85 187.594 364.856H191.944C191.944 361.253 194.865 358.331 198.469 358.331V353.981ZM193.031 322.444C196.635 322.444 199.556 325.365 199.556 328.969H203.906C203.906 322.963 199.037 318.094 193.031 318.094V322.444ZM342.019 322.444C345.923 322.444 349.087 325.609 349.087 329.513H353.438C353.438 323.206 348.325 318.094 342.019 318.094V322.444Z" fill="#1268B7" mask="url(#path-9-outside-1_946:37984)"/>
<line x1="113.1" y1="330.056" x2="187.05" y2="330.056" stroke="#F9CD77" stroke-width="3.2625" stroke-linecap="round" stroke-linejoin="round"/>
<line x1="274.05" y1="330.056" x2="341.475" y2="330.056" stroke="#A2C8EC" stroke-width="3.2625" stroke-linecap="round" stroke-linejoin="round"/>
<line x1="183.787" y1="347.456" x2="216.413" y2="347.456" stroke="#FCB3C2" stroke-width="3.2625" stroke-linecap="round" stroke-linejoin="round"/>
<line x1="129.412" y1="365.944" x2="178.35" y2="365.944" stroke="#A2C8EC" stroke-width="3.2625" stroke-linecap="round" stroke-linejoin="round"/>
<line x1="261" y1="365.944" x2="301.237" y2="365.944" stroke="#FCB3C2" stroke-width="3.2625" stroke-linecap="round" stroke-linejoin="round"/>
<line x1="176.175" y1="382.256" x2="208.8" y2="382.256" stroke="#F9CD77" stroke-width="3.2625" stroke-linecap="round" stroke-linejoin="round"/>
<line x1="231.094" y1="347.456" x2="276.769" y2="347.456" stroke="#F9CD77" stroke-width="3.2625" stroke-linecap="round" stroke-linejoin="round"/>
<path d="M153.881 341.856C153.881 341.856 155.39 339.844 158.911 339.844C162.432 339.844 163.941 341.856 163.941 341.856V355.939C163.941 355.939 162.432 354.933 158.911 354.933C155.39 354.933 153.881 355.939 153.881 355.939V341.856Z" stroke="#A2C8EC" stroke-width="2.175" stroke-linecap="round" stroke-linejoin="round"/>
<path d="M163.94 341.856C163.94 341.856 165.449 339.844 168.97 339.844C172.491 339.844 174 341.856 174 341.856V355.939C174 355.939 172.491 354.933 168.97 354.933C165.449 354.933 163.94 355.939 163.94 355.939V341.856Z" stroke="#A2C8EC" stroke-width="2.175" stroke-linecap="round" stroke-linejoin="round"/>
<mask id="path-20-outside-2_946:37984" maskUnits="userSpaceOnUse" x="244.95" y="62.25" width="156" height="77" fill="black">
<rect fill="white" x="244.95" y="62.25" width="156" height="77"/>
<path fill-rule="evenodd" clip-rule="evenodd" d="M328.969 73.4062C328.969 68.9017 325.317 65.25 320.813 65.25H257.194C252.089 65.25 247.95 69.3886 247.95 74.4937C247.95 79.5989 252.089 83.7375 257.194 83.7375H257.737C262.843 83.7375 266.981 87.8761 266.981 92.9812C266.981 98.0864 271.12 102.225 276.225 102.225H305.116C309.581 102.225 313.2 105.844 313.2 110.309C313.2 114.773 309.581 118.392 305.116 118.392H295.096C290.101 118.392 286.052 122.441 286.052 127.437C286.052 132.432 290.101 136.481 295.096 136.481H347.653C352.458 136.481 356.353 132.586 356.353 127.781C356.353 122.976 360.248 119.081 365.053 119.081H389.053C394.008 119.081 398.025 115.064 398.025 110.109C398.025 105.154 394.008 101.137 389.053 101.137H375.731C370.326 101.137 365.944 96.7555 365.944 91.35C365.944 85.9445 361.562 81.5625 356.156 81.5625H337.125C332.621 81.5625 328.969 77.9108 328.969 73.4062Z"/>
</mask>
<path fill-rule="evenodd" clip-rule="evenodd" d="M328.969 73.4062C328.969 68.9017 325.317 65.25 320.813 65.25H257.194C252.089 65.25 247.95 69.3886 247.95 74.4937C247.95 79.5989 252.089 83.7375 257.194 83.7375H257.737C262.843 83.7375 266.981 87.8761 266.981 92.9812C266.981 98.0864 271.12 102.225 276.225 102.225H305.116C309.581 102.225 313.2 105.844 313.2 110.309C313.2 114.773 309.581 118.392 305.116 118.392H295.096C290.101 118.392 286.052 122.441 286.052 127.437C286.052 132.432 290.101 136.481 295.096 136.481H347.653C352.458 136.481 356.353 132.586 356.353 127.781C356.353 122.976 360.248 119.081 365.053 119.081H389.053C394.008 119.081 398.025 115.064 398.025 110.109C398.025 105.154 394.008 101.137 389.053 101.137H375.731C370.326 101.137 365.944 96.7555 365.944 91.35C365.944 85.9445 361.562 81.5625 356.156 81.5625H337.125C332.621 81.5625 328.969 77.9108 328.969 73.4062Z" fill="white"/>
<path d="M257.194 67.425H320.813V63.075H257.194V67.425ZM257.737 81.5625H257.194V85.9125H257.737V81.5625ZM305.116 100.05H276.225V104.4H305.116V100.05ZM305.116 116.217H295.096V120.567H305.116V116.217ZM295.096 138.656H347.653V134.306H295.096V138.656ZM389.053 116.906H365.053V121.256H389.053V116.906ZM375.731 103.312H389.053V98.9625H375.731V103.312ZM337.125 83.7375H356.156V79.3875H337.125V83.7375ZM337.125 79.3875C333.822 79.3875 331.144 76.7096 331.144 73.4062H326.794C326.794 79.112 331.419 83.7375 337.125 83.7375V79.3875ZM368.119 91.35C368.119 84.7433 362.763 79.3875 356.156 79.3875V83.7375C360.361 83.7375 363.769 87.1457 363.769 91.35H368.119ZM375.731 98.9625C371.527 98.9625 368.119 95.5543 368.119 91.35H363.769C363.769 97.9567 369.125 103.312 375.731 103.312V98.9625ZM400.2 110.109C400.2 103.953 395.209 98.9625 389.053 98.9625V103.312C392.807 103.312 395.85 106.356 395.85 110.109H400.2ZM389.053 121.256C395.209 121.256 400.2 116.266 400.2 110.109H395.85C395.85 113.863 392.807 116.906 389.053 116.906V121.256ZM358.528 127.781C358.528 124.178 361.449 121.256 365.053 121.256V116.906C359.047 116.906 354.178 121.775 354.178 127.781H358.528ZM347.653 138.656C353.659 138.656 358.528 133.787 358.528 127.781H354.178C354.178 131.385 351.257 134.306 347.653 134.306V138.656ZM283.877 127.437C283.877 133.633 288.9 138.656 295.096 138.656V134.306C291.302 134.306 288.227 131.231 288.227 127.437H283.877ZM295.096 116.217C288.9 116.217 283.877 121.24 283.877 127.437H288.227C288.227 123.643 291.302 120.567 295.096 120.567V116.217ZM311.025 110.309C311.025 113.572 308.38 116.217 305.116 116.217V120.567C310.782 120.567 315.375 115.974 315.375 110.309H311.025ZM305.116 104.4C308.38 104.4 311.025 107.045 311.025 110.309H315.375C315.375 104.643 310.782 100.05 305.116 100.05V104.4ZM264.806 92.9812C264.806 99.2876 269.919 104.4 276.225 104.4V100.05C272.321 100.05 269.156 96.8852 269.156 92.9812H264.806ZM257.737 85.9125C261.641 85.9125 264.806 89.0773 264.806 92.9812H269.156C269.156 86.6749 264.044 81.5625 257.737 81.5625V85.9125ZM245.775 74.4937C245.775 80.8001 250.888 85.9125 257.194 85.9125V81.5625C253.29 81.5625 250.125 78.3977 250.125 74.4937H245.775ZM320.813 67.425C324.116 67.425 326.794 70.1029 326.794 73.4062H331.144C331.144 67.7005 326.518 63.075 320.813 63.075V67.425ZM257.194 63.075C250.888 63.075 245.775 68.1874 245.775 74.4937H250.125C250.125 70.5898 253.29 67.425 257.194 67.425V63.075Z" fill="#1268B7" mask="url(#path-20-outside-2_946:37984)"/>
<line x1="261.544" y1="74.4938" x2="318.094" y2="74.4938" stroke="#F9CD77" stroke-width="3.2625" stroke-linecap="round" stroke-linejoin="round"/>
<line x1="302.325" y1="91.35" x2="353.438" y2="91.35" stroke="#FCB3C2" stroke-width="3.2625" stroke-linecap="round" stroke-linejoin="round"/>
<circle cx="277.339" cy="95.7266" r="2.74527" stroke="#A2C8EC" stroke-width="2.175"/>
<path d="M280.031 95.7V85.0294C280.031 84.0912 280.683 83.2791 281.599 83.0766L288.474 81.5565C289.723 81.2804 290.906 82.2307 290.906 83.5093V94.1112" stroke="#A2C8EC" stroke-width="2.175"/>
<circle cx="288.161" cy="93.8699" r="2.74527" stroke="#A2C8EC" stroke-width="2.175"/>
<line x1="332.775" y1="109.294" x2="383.887" y2="109.294" stroke="#A2C8EC" stroke-width="3.2625" stroke-linecap="round" stroke-linejoin="round"/>
<line x1="296.344" y1="127.237" x2="346.369" y2="127.237" stroke="#F9CD77" stroke-width="3.2625" stroke-linecap="round" stroke-linejoin="round"/>
<mask id="path-29-outside-3_946:37984" maskUnits="userSpaceOnUse" x="56.269" y="49.7439" width="125" height="77" fill="black">
<rect fill="white" x="56.269" y="49.7439" width="125" height="77"/>
<path fill-rule="evenodd" clip-rule="evenodd" d="M125.063 61.4439C125.063 56.639 121.168 52.7439 116.363 52.7439H79.9315C74.8264 52.7439 70.6878 56.8825 70.6878 61.9876C70.6878 67.0928 74.8264 71.2314 79.9315 71.2314H93.5253C98.3302 71.2314 102.225 75.1265 102.225 79.9314C102.225 84.7363 98.3302 88.6314 93.5253 88.6314H68.2409C63.2859 88.6314 59.269 92.6482 59.269 97.6033C59.269 102.558 63.2859 106.575 68.2409 106.575H76.7084C81.5132 106.575 85.4083 110.47 85.4083 115.275C85.4083 120.08 89.3034 123.975 94.1083 123.975H146.665C151.66 123.975 155.71 119.926 155.71 114.93C155.71 109.935 151.66 105.886 146.665 105.886H139.128C134.363 105.886 130.5 102.023 130.5 97.2586C130.5 92.4939 134.363 88.6314 139.128 88.6314H169.65C174.755 88.6314 178.894 84.4928 178.894 79.3876C178.894 74.2825 174.755 70.1439 169.65 70.1439H133.763C128.958 70.1439 125.063 66.2488 125.063 61.4439Z"/>
</mask>
<path fill-rule="evenodd" clip-rule="evenodd" d="M125.063 61.4439C125.063 56.639 121.168 52.7439 116.363 52.7439H79.9315C74.8264 52.7439 70.6878 56.8825 70.6878 61.9876C70.6878 67.0928 74.8264 71.2314 79.9315 71.2314H93.5253C98.3302 71.2314 102.225 75.1265 102.225 79.9314C102.225 84.7363 98.3302 88.6314 93.5253 88.6314H68.2409C63.2859 88.6314 59.269 92.6482 59.269 97.6033C59.269 102.558 63.2859 106.575 68.2409 106.575H76.7084C81.5132 106.575 85.4083 110.47 85.4083 115.275C85.4083 120.08 89.3034 123.975 94.1083 123.975H146.665C151.66 123.975 155.71 119.926 155.71 114.93C155.71 109.935 151.66 105.886 146.665 105.886H139.128C134.363 105.886 130.5 102.023 130.5 97.2586C130.5 92.4939 134.363 88.6314 139.128 88.6314H169.65C174.755 88.6314 178.894 84.4928 178.894 79.3876C178.894 74.2825 174.755 70.1439 169.65 70.1439H133.763C128.958 70.1439 125.063 66.2488 125.063 61.4439Z" fill="white"/>
<path d="M79.9315 54.9189H116.363V50.5689H79.9315V54.9189ZM93.5253 69.0564H79.9315V73.4064H93.5253V69.0564ZM68.2409 90.8064H93.5253V86.4564H68.2409V90.8064ZM76.7084 104.4H68.2409V108.75H76.7084V104.4ZM94.1083 126.15H146.665V121.8H94.1083V126.15ZM146.665 103.711H139.128V108.061H146.665V103.711ZM169.65 86.4564H139.128V90.8064H169.65V86.4564ZM133.763 72.3189H169.65V67.9689H133.763V72.3189ZM133.763 67.9689C130.159 67.9689 127.238 65.0476 127.238 61.4439H122.888C122.888 67.45 127.757 72.3189 133.763 72.3189V67.9689ZM181.069 79.3876C181.069 73.0812 175.957 67.9689 169.65 67.9689V72.3189C173.554 72.3189 176.719 75.4837 176.719 79.3876H181.069ZM169.65 90.8064C175.957 90.8064 181.069 85.694 181.069 79.3876H176.719C176.719 83.2916 173.554 86.4564 169.65 86.4564V90.8064ZM132.675 97.2586C132.675 93.6952 135.564 90.8064 139.128 90.8064V86.4564C133.162 86.4564 128.325 91.2927 128.325 97.2586H132.675ZM139.128 103.711C135.564 103.711 132.675 100.822 132.675 97.2586H128.325C128.325 103.225 133.162 108.061 139.128 108.061V103.711ZM157.885 114.93C157.885 108.734 152.861 103.711 146.665 103.711V108.061C150.459 108.061 153.535 111.137 153.535 114.93H157.885ZM146.665 126.15C152.861 126.15 157.885 121.127 157.885 114.93H153.535C153.535 118.724 150.459 121.8 146.665 121.8V126.15ZM83.2333 115.275C83.2333 121.281 88.1022 126.15 94.1083 126.15V121.8C90.5047 121.8 87.5833 118.879 87.5833 115.275H83.2333ZM76.7084 108.75C80.312 108.75 83.2333 111.671 83.2333 115.275H87.5833C87.5833 109.269 82.7144 104.4 76.7084 104.4V108.75ZM57.094 97.6033C57.094 103.76 62.0847 108.75 68.2409 108.75V104.4C64.4871 104.4 61.444 101.357 61.444 97.6033H57.094ZM68.2409 86.4564C62.0847 86.4564 57.094 91.447 57.094 97.6033H61.444C61.444 93.8495 64.4871 90.8064 68.2409 90.8064V86.4564ZM100.05 79.9314C100.05 83.5351 97.129 86.4564 93.5253 86.4564V90.8064C99.5314 90.8064 104.4 85.9375 104.4 79.9314H100.05ZM93.5253 73.4064C97.129 73.4064 100.05 76.3277 100.05 79.9314H104.4C104.4 73.9253 99.5314 69.0564 93.5253 69.0564V73.4064ZM68.5128 61.9876C68.5128 68.294 73.6251 73.4064 79.9315 73.4064V69.0564C76.0276 69.0564 72.8628 65.8916 72.8628 61.9876H68.5128ZM116.363 54.9189C119.966 54.9189 122.888 57.8402 122.888 61.4439H127.238C127.238 55.4378 122.369 50.5689 116.363 50.5689V54.9189ZM79.9315 50.5689C73.6251 50.5689 68.5128 55.6812 68.5128 61.9876H72.8628C72.8628 58.0837 76.0276 54.9189 79.9315 54.9189V50.5689Z" fill="#1268B7" mask="url(#path-29-outside-3_946:37984)"/>
<line x1="81.0189" y1="61.4439" x2="116.363" y2="61.4439" stroke="#A2C8EC" stroke-width="3.2625" stroke-linecap="round" stroke-linejoin="round"/>
<line x1="138.113" y1="79.3875" x2="170.738" y2="79.3876" stroke="#FCB3C2" stroke-width="3.2625" stroke-linecap="round" stroke-linejoin="round"/>
<line x1="73.4066" y1="97.3314" x2="122.888" y2="97.3314" stroke="#F9CD77" stroke-width="3.2625" stroke-linecap="round" stroke-linejoin="round"/>
<line x1="100.05" y1="114.731" x2="139.744" y2="114.731" stroke="#A2C8EC" stroke-width="3.2625" stroke-linecap="round" stroke-linejoin="round"/>
<rect x="110.925" y="75.5814" width="17.9438" height="11.9625" rx="1.0875" stroke="#A2C8EC" stroke-width="2.175"/>
<rect x="1.0875" y="-1.0875" width="8.15625" height="3.80625" rx="1.0875" transform="matrix(1 0 0 -1 114.732 74.4939)" stroke="#A2C8EC" stroke-width="2.175"/>
<path d="M111.469 79.6597L119.86 81.948C120.24 82.0518 120.642 82.0502 121.021 81.9434L129.141 79.6597" stroke="#A2C8EC" stroke-width="2.175"/>
<circle r="1.0875" transform="matrix(-0.961295 -0.275521 -0.275521 0.961295 214.639 131.845)" fill="#1268B7"/>
<circle r="1.0875" transform="matrix(-0.961295 -0.275521 -0.275521 0.961295 208.514 133.483)" fill="#1268B7"/>
<path d="M211.054 132.514L215.119 136.093L212.879 137.301" stroke="#1268B7" stroke-width="1.63125" stroke-linecap="round" stroke-linejoin="round"/>
<path d="M208.285 139.287L211.069 140.728C210.597 140.841 210.016 140.796 209.427 140.49C208.837 140.185 208.465 139.737 208.285 139.287Z" stroke="#1268B7" stroke-width="2.175"/>
<path d="M241.471 211.191V186.9C241.471 185.979 242.051 185.158 242.919 184.85L260.338 178.664C260.579 178.579 260.803 178.451 261 178.288L297.877 147.651C298.059 147.5 298.265 147.379 298.485 147.294L312.692 141.821C314.429 141.152 313.866 138.449 312.005 138.503C305.39 138.693 297.39 138.741 293.597 138.064C290.742 137.554 288.133 136.141 286.036 134.635C285.029 133.911 283.012 135.262 283.462 136.417L284.235 138.396C284.659 139.483 284.151 140.71 283.083 141.179L260.606 151.037C260.336 151.156 260.044 151.218 259.749 151.22L235.939 151.404C235.665 151.406 235.402 151.457 235.146 151.552C233.147 152.296 223.45 155.643 210.854 155.643C198.23 155.643 188.518 152.582 186.549 151.914C186.301 151.83 186.049 151.787 185.787 151.789L162.351 151.969C161.811 151.974 161.288 151.776 160.885 151.416L139.47 132.286C138.528 131.445 138.498 129.981 139.406 129.102L141.676 126.903C142.54 126.067 141.484 124.309 140.317 124.595C137.045 125.395 132.529 126.176 127.351 126.176C122.651 126.176 117.407 125.879 113.018 125.548C111.182 125.409 110.452 128.057 112.115 128.848L123.998 134.505C124.37 134.682 124.684 134.961 124.904 135.309L148.651 173.011C149.76 174.772 151.5 176.042 153.515 176.562L158.022 177.724C158.155 177.759 158.291 177.78 158.428 177.789L180.223 179.165C181.368 179.237 182.26 180.188 182.26 181.336V203.457C182.26 204.541 183.059 205.459 184.132 205.61L238.993 213.344C240.302 213.529 241.471 212.513 241.471 211.191Z" fill="#A2C8EC"/>
<path d="M242.092 219.131V186.623C242.092 185.421 243.065 184.448 244.267 184.448H256.83C257.791 184.448 258.643 183.821 258.879 182.89C261.354 173.127 260.589 160.55 258.829 152.278C258.621 151.3 257.746 150.619 256.746 150.619H222.832C222.009 150.619 221.245 151.087 220.674 151.68C219.38 153.023 216.329 155.163 210.022 155.163C203.561 155.163 200.347 152.917 199.007 151.583C198.457 151.034 197.732 150.619 196.954 150.619H162.93C162.112 150.619 161.356 151.07 161.042 151.827C157.81 159.625 157.5 174.524 159.425 182.882C159.641 183.819 160.494 184.448 161.456 184.448H173.581C174.782 184.448 175.756 185.421 175.756 186.623V219.131C175.756 220.332 176.73 221.306 177.931 221.306H239.917C241.118 221.306 242.092 220.332 242.092 219.131Z" fill="#4592D9"/>
</svg>
