<svg width="435" height="435" viewBox="0 0 435 435" fill="none" xmlns="http://www.w3.org/2000/svg">
<rect width="435" height="435" fill="white"/>
<rect x="267.253" y="79.3875" width="56.0062" height="43.5" rx="3.2625" fill="white" stroke="#1268B7" stroke-width="2.175" stroke-linecap="round" stroke-linejoin="round"/>
<rect x="282.478" y="88.6312" width="15.7688" height="14.6812" rx="1.0875" stroke="#74ADE2" stroke-width="2.175"/>
<rect x="282.478" y="88.6312" width="26.1" height="14.6812" rx="1.0875" stroke="#74ADE2" stroke-width="2.175"/>
<rect x="282.478" y="88.6312" width="26.1" height="25.0125" rx="1.0875" stroke="#74ADE2" stroke-width="2.175"/>
<rect x="303.684" y="118.537" width="56.0062" height="43.5" rx="3.2625" fill="white" stroke="#1268B7" stroke-width="2.175" stroke-linecap="round" stroke-linejoin="round"/>
<line x1="317.822" y1="130.5" x2="341.203" y2="130.5" stroke="#F9CD77" stroke-width="2.175" stroke-linecap="round"/>
<line x1="317.822" y1="136.481" x2="345.553" y2="136.481" stroke="#F9CD77" stroke-width="2.175" stroke-linecap="round"/>
<line x1="317.822" y1="142.463" x2="341.203" y2="142.463" stroke="#F9CD77" stroke-width="2.175" stroke-linecap="round"/>
<line x1="317.822" y1="148.444" x2="345.553" y2="148.444" stroke="#F9CD77" stroke-width="2.175" stroke-linecap="round"/>
<rect x="254.747" y="134.306" width="56.0062" height="43.5" rx="3.2625" fill="white" stroke="#1268B7" stroke-width="2.175" stroke-linecap="round" stroke-linejoin="round"/>
<path d="M269.11 162.9C265.33 159.12 265.33 152.992 269.11 149.213C272.889 145.433 279.017 145.433 282.797 149.213C286.576 152.992 286.576 159.12 282.797 162.9C279.017 166.679 272.889 166.679 269.11 162.9Z" stroke="#FCB3C2" stroke-width="2.175" stroke-linecap="round" stroke-linejoin="round"/>
<path d="M282.703 162.9C278.924 159.12 278.924 152.992 282.703 149.213C286.483 145.433 292.611 145.433 296.39 149.213C300.17 152.992 300.17 159.12 296.39 162.9C292.611 166.679 286.483 166.679 282.703 162.9Z" stroke="#FCB3C2" stroke-width="2.175" stroke-linecap="round" stroke-linejoin="round"/>
<path d="M138.385 242.784L120.434 253.519C114.367 257.147 110.653 263.696 110.653 270.765V270.765C110.653 279.907 116.824 287.896 125.669 290.207L209.911 312.212C212.014 312.761 214.171 311.53 214.768 309.44L223.414 279.179C224.043 276.98 222.703 274.703 220.476 274.184L190.721 267.253M156.872 259.369L190.721 267.253M218.86 240.337L237.792 248.017C243.988 250.531 248.568 255.91 250.062 262.428V262.428C252.173 271.642 247.707 281.104 239.253 285.331L237.347 286.284M190.721 267.253L218.86 253.931" stroke="#1268B7" stroke-width="2.175" stroke-linecap="round"/>
<path d="M227.882 311.035L222.928 310.045C221.848 309.828 221.1 308.839 221.187 307.74L223.035 284.402C223.131 283.194 224.196 282.297 225.403 282.408L244.679 284.181C245.882 284.291 246.764 285.361 246.644 286.563L242.215 330.86C242.084 332.165 240.838 333.058 239.561 332.763L236.157 331.978C235.382 331.799 234.767 331.211 234.552 330.445L229.55 312.582C229.33 311.793 228.685 311.196 227.882 311.035Z" fill="#F9CD77"/>
<path d="M218.859 309.394L227.652 310.808C228.492 310.943 229.176 311.554 229.403 312.374L234.504 330.761C234.699 331.465 235.236 332.024 235.931 332.249L239.545 333.416C240.872 333.845 242.254 332.931 242.38 331.542L246.445 286.563C246.554 285.362 245.664 284.301 244.462 284.2L223.043 282.391" stroke="#1268B7" stroke-width="2.175" stroke-linecap="round"/>
<path d="M199.429 150.347H154.838C140.464 150.347 127.194 158.06 120.08 170.551L109.909 188.41C109.149 189.744 110.112 191.4 111.647 191.4H125.878H137.84V229.619C137.84 234.037 141.422 237.619 145.84 237.619H210.315C214.734 237.619 218.315 234.037 218.315 229.619V191.4C218.315 191.4 224.976 191.672 233.269 191.4C237.594 191.258 241.402 191.264 244.055 191.303C245.684 191.326 246.705 189.502 245.812 188.14L232.88 168.415C225.488 157.14 212.912 150.347 199.429 150.347Z" fill="#FA8EA3"/>
<path d="M314.831 215.325C290.091 215.325 287.644 239.522 254.475 239.522C221.306 239.522 215.597 208.8 192.759 200.916" stroke="#1268B7" stroke-width="2.175"/>
<path d="M151.432 202.009C151.32 200.721 152.321 199.556 153.615 199.556H207.023C208.071 199.556 208.978 200.339 209.154 201.372C220.669 269.05 162.07 286.256 173.029 353.534C173.247 354.877 172.23 356.156 170.869 356.156H109.003C107.935 356.156 107.017 355.342 106.864 354.284C96.9777 285.568 157.495 271.555 151.432 202.009Z" fill="white"/>
<path d="M151.193 199.556C158.915 271.236 96.8626 284.768 106.864 354.284C107.017 355.342 107.935 356.156 109.003 356.156H170.869C172.23 356.156 173.25 354.892 173.031 353.549C164.338 300.225 199.339 278.354 208.511 237.891C209.687 232.703 210.619 221.306 210.619 221.306" stroke="#1268B7" stroke-width="2.175" stroke-linecap="round"/>
<path d="M108.134 201.041L112.828 191.4C112.828 191.4 119.353 191.944 125.742 191.944C132.131 191.944 139.744 191.4 139.744 191.4L163.887 185.364C165.118 185.056 166.421 185.351 167.4 186.157L177.712 194.649C178.928 195.65 179.443 197.271 179.029 198.789L178.639 200.217C177.946 202.761 175.024 203.949 172.752 202.613L170.098 201.052C168.819 200.299 167.229 200.317 165.966 201.097L131.666 222.312C125.354 226.216 117.213 225.429 111.766 220.388C106.423 215.444 104.948 207.586 108.134 201.041Z" fill="white"/>
<path d="M248.114 201.229L243.328 191.4C243.328 191.4 237.347 192.488 232.046 192.488C226.744 192.488 220.763 191.4 220.763 191.4L193.968 182.965C192.416 182.476 190.722 182.977 189.685 184.231L181.032 194.694C180.203 195.697 179.913 197.041 180.256 198.296L180.78 200.217C181.473 202.761 184.395 203.949 186.667 202.613L189.243 201.097C190.562 200.321 192.21 200.366 193.485 201.214L224.537 221.851C230.777 225.998 239.045 225.335 244.544 220.246C249.795 215.387 251.245 207.662 248.114 201.229Z" fill="white"/>
<path d="M112.828 191.4L108.134 201.041C104.948 207.586 106.423 215.444 111.766 220.388V220.388C117.213 225.429 125.354 226.216 131.666 222.312L165.966 201.097C167.229 200.317 168.819 200.299 170.098 201.052L172.752 202.613C175.024 203.949 177.946 202.761 178.639 200.217L179.029 198.789C179.443 197.271 178.928 195.65 177.712 194.649L167.4 186.157C166.421 185.351 165.118 185.056 163.887 185.364L139.744 191.4" stroke="#1268B7" stroke-width="2.175" stroke-linecap="round"/>
<path d="M243.872 192.216L248.195 201.233C251.282 207.671 249.813 215.37 244.573 220.22V220.22C239.057 225.324 230.764 225.989 224.505 221.829L193.485 201.214C192.21 200.366 190.562 200.321 189.243 201.097L187.31 202.234C184.714 203.761 181.376 202.403 180.583 199.497V199.497C180.035 197.489 180.499 195.339 181.825 193.735L186.253 188.381C189.365 184.618 194.447 183.115 199.104 184.582L220.763 191.4" stroke="#1268B7" stroke-width="2.175" stroke-linecap="round"/>
<line x1="159.434" y1="163.017" x2="175.251" y2="192.1" stroke="#1268B7" stroke-width="2.175" stroke-linecap="round"/>
<line x1="1.0875" y1="-1.0875" x2="34.1935" y2="-1.0875" transform="matrix(-0.477772 0.878484 0.878484 0.477772 198.741 164.756)" stroke="#1268B7" stroke-width="2.175" stroke-linecap="round"/>
<line x1="160.134" y1="221.306" x2="193.847" y2="221.306" stroke="#A2C8EC" stroke-width="2.175" stroke-linecap="round" stroke-linejoin="round"/>
<line x1="160.134" y1="227.831" x2="182.428" y2="227.831" stroke="#A2C8EC" stroke-width="2.175" stroke-linecap="round" stroke-linejoin="round"/>
<line x1="143.278" y1="270.788" x2="165.572" y2="270.788" stroke="#FCB3C2" stroke-width="2.175" stroke-linecap="round" stroke-linejoin="round"/>
<line x1="144.909" y1="328.969" x2="162.853" y2="328.969" stroke="#F9CD77" stroke-width="2.175" stroke-linecap="round" stroke-linejoin="round"/>
<line x1="144.909" y1="334.95" x2="157.959" y2="334.95" stroke="#A2C8EC" stroke-width="2.175" stroke-linecap="round" stroke-linejoin="round"/>
<line x1="144.909" y1="340.931" x2="162.853" y2="340.931" stroke="#F9CD77" stroke-width="2.175" stroke-linecap="round" stroke-linejoin="round"/>
<line x1="138.928" y1="276.769" x2="179.71" y2="276.769" stroke="#FCB3C2" stroke-width="2.175" stroke-linecap="round" stroke-linejoin="round"/>
<line x1="157.416" y1="234.9" x2="191.128" y2="234.9" stroke="#A2C8EC" stroke-width="2.175" stroke-linecap="round" stroke-linejoin="round"/>
<path d="M130.675 287.644H176.991L165.669 311.569H119.353L130.675 287.644Z" stroke="#A2C8EC" stroke-width="2.175" stroke-linecap="round" stroke-linejoin="round"/>
<path d="M147.845 296.437L151.657 300.075C152.297 300.687 151.977 301.767 151.107 301.931L145.07 303.068C144.2 303.232 143.509 302.343 143.883 301.54L146.109 296.764C146.423 296.089 147.307 295.923 147.845 296.437Z" fill="white" stroke="#A2C8EC" stroke-width="2.175" stroke-linecap="round" stroke-linejoin="round"/>
<ellipse cx="175.087" cy="256.922" rx="11.1469" ry="6.79688" stroke="#F9CD77" stroke-width="2.175" stroke-linecap="round" stroke-linejoin="round"/>
<ellipse cx="164.212" cy="249.853" rx="11.1469" ry="6.79688" stroke="#F9CD77" stroke-width="2.175" stroke-linecap="round" stroke-linejoin="round"/>
<path d="M139.472 326.25H115.087L113.372 345.825H137.756L139.472 326.25Z" stroke="#F9CD77" stroke-width="2.175" stroke-linecap="round" stroke-linejoin="round"/>
<rect x="278.672" y="172.912" width="56.0062" height="43.5" rx="3.2625" fill="white" stroke="#1268B7" stroke-width="2.175" stroke-linecap="round" stroke-linejoin="round"/>
<path d="M302.252 179.981L312.439 197.626C312.858 198.351 312.335 199.258 311.497 199.258H291.123C290.286 199.258 289.762 198.351 290.181 197.626L300.368 179.981C300.787 179.256 301.833 179.256 302.252 179.981Z" stroke="#F9CD77" stroke-width="2.175" stroke-linecap="round" stroke-linejoin="round"/>
<path d="M322.097 189.051L322.097 207.488C322.097 208.089 321.61 208.576 321.009 208.576H302.572C301.971 208.576 301.484 208.089 301.484 207.488L301.484 189.051C301.484 188.45 301.971 187.963 302.572 187.963L321.009 187.963C321.61 187.963 322.097 188.45 322.097 189.051Z" stroke="#F9CD77" stroke-width="2.175" stroke-linecap="round" stroke-linejoin="round"/>
<path d="M163.853 127.753C161.648 135.982 165.892 144.061 173.043 145.977C180.193 147.893 187.909 143.018 190.114 134.789C192.319 126.561 188.074 118.481 180.924 116.565C173.773 114.649 166.058 119.524 163.853 127.753Z" stroke="#1268B7" stroke-width="2.175"/>
<path d="M162.439 116.119C165.61 109.647 173.427 106.97 179.9 110.141V110.141L168.895 132.603C165.724 139.075 157.907 141.752 151.435 138.581V138.581L162.439 116.119Z" fill="#1268B7"/>
<path d="M179.687 110.031L185.309 112.786C193.768 116.93 197.266 127.147 193.121 135.606V135.606L181.163 129.748C176.204 127.318 174.153 121.327 176.583 116.368L179.687 110.031Z" fill="#1268B7"/>
<circle r="1.0875" transform="matrix(-0.366545 -0.9304 -0.9304 0.366545 182.734 134.319)" fill="#1268B7"/>
<circle r="1.0875" transform="matrix(-0.366545 -0.9304 -0.9304 0.366545 176.889 131.367)" fill="#1268B7"/>
<path d="M179.708 132.996L179.343 138.4L177.021 137.358" stroke="#1268B7" stroke-width="1.63125" stroke-linecap="round" stroke-linejoin="round"/>
<path d="M175.189 140.165C175.699 140.371 176.219 140.524 176.694 140.637C176.171 140.872 175.557 140.901 174.985 140.669C174.413 140.438 173.993 139.99 173.78 139.458C174.2 139.707 174.68 139.959 175.189 140.165ZM173.293 139.156C173.293 139.156 173.295 139.156 173.299 139.158C173.295 139.157 173.293 139.156 173.293 139.156ZM177.249 140.756C177.252 140.757 177.254 140.758 177.254 140.759C177.253 140.759 177.252 140.759 177.249 140.756Z" stroke="#1268B7" stroke-width="2.175"/>
</svg>
