<svg width="435" height="435" viewBox="0 0 435 435" fill="none" xmlns="http://www.w3.org/2000/svg">
<path d="M315.176 234.255C315.551 232.493 317.283 231.368 319.046 231.742L349.208 238.154L355.895 249.296L346.567 293.182C346.192 294.944 344.46 296.07 342.698 295.695L307.062 288.12C305.3 287.746 304.175 286.013 304.55 284.251L315.176 234.255Z" fill="white" stroke="#1268B7" stroke-width="2.175" stroke-linecap="round" stroke-linejoin="round"/>
<path d="M347.165 247.364L348.833 239.514C348.929 239.066 349.526 238.971 349.755 239.367L355.207 248.776C355.425 249.151 355.095 249.606 354.671 249.515L347.583 248.009C347.29 247.947 347.102 247.658 347.165 247.364Z" stroke="#1268B7" stroke-width="2.175"/>
<line x1="322.262" y1="249.159" x2="344.115" y2="253.803" stroke="#A2C8EC" stroke-width="2.175" stroke-linecap="round" stroke-linejoin="round"/>
<line x1="320.521" y1="257.349" x2="338.013" y2="261.068" stroke="#A2C8EC" stroke-width="2.175" stroke-linecap="round" stroke-linejoin="round"/>
<line x1="318.78" y1="265.54" x2="340.632" y2="270.185" stroke="#F9CD77" stroke-width="2.175" stroke-linecap="round" stroke-linejoin="round"/>
<line x1="317.039" y1="273.731" x2="334.531" y2="277.449" stroke="#F9CD77" stroke-width="2.175" stroke-linecap="round" stroke-linejoin="round"/>
<rect x="61.9874" y="317.006" width="79.3875" height="61.9875" rx="3.2625" fill="white" stroke="#1268B7" stroke-width="2.175" stroke-linecap="round" stroke-linejoin="round"/>
<line x1="80.4752" y1="331.144" x2="85.3689" y2="331.144" stroke="#A2C8EC" stroke-width="2.175" stroke-linecap="round" stroke-linejoin="round"/>
<line x1="91.8937" y1="331.144" x2="96.7874" y2="331.144" stroke="#A2C8EC" stroke-width="2.175" stroke-linecap="round" stroke-linejoin="round"/>
<line x1="103.313" y1="331.144" x2="108.206" y2="331.144" stroke="#A2C8EC" stroke-width="2.175" stroke-linecap="round" stroke-linejoin="round"/>
<line x1="114.731" y1="331.144" x2="119.625" y2="331.144" stroke="#A2C8EC" stroke-width="2.175" stroke-linecap="round" stroke-linejoin="round"/>
<rect x="1.0875" y="-1.0875" width="36.4313" height="15.7688" rx="1.0875" transform="matrix(1 0 0 -1 80.7471 354.525)" stroke="#FCB3C2" stroke-width="2.175" stroke-linecap="round" stroke-linejoin="round"/>
<line x1="87.0001" y1="362.137" x2="113.1" y2="362.137" stroke="#A2C8EC" stroke-width="2.175" stroke-linecap="round" stroke-linejoin="round"/>
<line x1="83.1939" y1="368.663" x2="116.906" y2="368.663" stroke="#A2C8EC" stroke-width="2.175" stroke-linecap="round" stroke-linejoin="round"/>
<circle cx="67.4252" cy="321.9" r="1.63125" fill="#1268B7"/>
<circle cx="72.8627" cy="321.9" r="1.63125" fill="#1268B7"/>
<circle cx="78.3002" cy="321.9" r="1.63125" fill="#1268B7"/>
<path d="M133.334 289.734L136.341 282.812C136.823 281.703 138.117 281.2 139.222 281.692L158.464 290.268C159.544 290.749 160.042 292.005 159.585 293.095L151.024 313.531C150.551 314.66 149.241 315.176 148.125 314.673L108.974 297.034C107.702 296.461 107.291 294.855 108.131 293.742L110.416 290.71C110.856 290.126 111.56 289.802 112.289 289.848L131.202 291.038C132.117 291.096 132.969 290.574 133.334 289.734Z" fill="#FCB3C2"/>
<path d="M256.557 331.101L256.533 323.809C256.528 322.61 255.556 321.641 254.358 321.641L230.527 321.641C229.335 321.641 228.365 322.601 228.352 323.793L228.126 345.307C228.113 346.498 229.061 347.478 230.252 347.504L274.545 348.494C275.765 348.521 276.768 347.54 276.768 346.319L276.768 341.852C276.768 340.952 276.214 340.145 275.374 339.822L257.952 333.124C257.114 332.802 256.56 331.998 256.557 331.101Z" fill="#FCB3C2"/>
<path d="M135.911 284.649L133.395 290.297C133.025 291.127 132.178 291.64 131.271 291.583L112.343 290.392C111.613 290.346 110.91 290.67 110.47 291.253L108.184 294.285C107.345 295.399 107.756 297.004 109.028 297.577L148.155 315.206C149.28 315.713 150.6 315.184 151.064 314.04L160.678 290.318" stroke="#1268B7" stroke-width="2.175" stroke-linecap="round"/>
<path d="M256.115 325.641L256.048 331.824C256.039 332.732 256.595 333.551 257.443 333.877L275.145 340.683C275.827 340.946 276.332 341.533 276.489 342.247L277.303 345.956C277.602 347.318 276.56 348.606 275.165 348.597L229.956 348.314C228.768 348.306 227.806 347.347 227.795 346.159L227.559 321.356" stroke="#1268B7" stroke-width="2.175" stroke-linecap="round"/>
<path d="M259.097 253.388L264.948 316.99C265.164 319.334 263.319 321.356 260.965 321.356H227.076C225.032 321.356 223.316 319.815 223.099 317.782L217.436 264.847C217.318 263.741 216.385 262.903 215.273 262.903H192.767C188.546 262.903 184.636 265.121 182.469 268.743L169.534 290.366C168.509 292.079 166.379 292.774 164.542 291.996L134.742 279.38C132.502 278.432 131.62 275.721 132.873 273.636L154.578 237.528C158.194 231.511 164.7 227.831 171.719 227.831H187.05" stroke="#1268B7" stroke-width="2.175" stroke-linecap="round"/>
<path d="M307.047 271.715L313.584 265.179L318.534 270.129C319.393 270.988 319.578 272.313 318.986 273.375L317.06 276.831C316.182 278.408 314.039 278.707 312.763 277.43L307.047 271.715Z" fill="#F5AB1C"/>
<path d="M307.238 273.586C308.371 273.62 309.455 273.153 310.257 272.351L314.226 268.381C315.024 267.583 315.491 266.506 315.461 265.378C315.227 256.525 312.203 247.364 308.602 238.922C308.266 238.134 307.185 238.027 306.685 238.722C304.698 241.483 300.264 247.355 294.744 252.875C289.248 258.371 283.402 262.791 280.627 264.79C279.925 265.296 280.042 266.392 280.843 266.721C289.362 270.218 298.33 273.318 307.238 273.586Z" fill="#F9CD77"/>
<path d="M305.588 236.803L252.834 182.961C251.141 181.233 248.362 181.218 246.651 182.93L224.805 204.776C223.091 206.489 223.108 209.273 224.843 210.965L280.575 265.35C284.109 268.069 293.081 273.778 307.219 273.778" stroke="#1268B7" stroke-width="2.175" stroke-linecap="round" stroke-linejoin="round"/>
<circle cx="235.444" cy="133.763" r="7.6125" fill="#FCB3C2"/>
<circle cx="218.044" cy="148.444" r="13.5938" stroke="#1268B7" stroke-width="2.175"/>
<circle cx="247.406" cy="132.675" r="4.89375" fill="#FCB3C2"/>
<path d="M250.512 168.039C222.601 168.094 187.05 168.019 187.05 168.019H164.403C164.108 168.019 163.836 167.91 163.631 167.697C161.024 164.988 142.772 146.015 139.744 142.734L131.044 154.425L151.641 190.046C153.196 192.735 156.066 194.391 159.172 194.391H180.253C181.455 194.391 182.428 195.364 182.428 196.566V218.316C182.428 220.718 184.376 222.666 186.778 222.666H228.919L225.769 225.816C225.427 226.158 225.669 226.744 226.154 226.744H237.347L224.841 239.25C229.151 243.709 236.299 243.709 240.61 239.25L282.281 197.81C286.087 194.025 285.591 187.729 281.237 184.587L264.585 172.568C260.488 169.611 255.565 168.028 250.512 168.039Z" fill="#F9CD77"/>
<path d="M247.406 232.997L241.153 239.522V239.522C236.821 244.004 229.655 244.065 225.247 239.657L224.841 239.25L237.891 227.016H227.255C226.364 227.016 225.918 225.939 226.548 225.309L228.919 222.938L252.572 199.556" stroke="#1268B7" stroke-width="2.175" stroke-linecap="round" stroke-linejoin="round"/>
<path d="M143.209 138.688L128.728 158.752C123.902 154.59 122.98 147.353 126.78 142.088C130.58 136.824 137.738 135.419 143.209 138.688Z" fill="#F9CD77" stroke="#1268B7" stroke-width="2.175" stroke-linecap="round" stroke-linejoin="round"/>
<path d="M123.748 165.951C123.38 166.461 122.74 166.505 122.364 166.179C113.484 158.477 111.801 145.127 118.813 135.412C126.021 125.425 139.768 122.95 149.974 129.616L146.709 134.139L134.592 150.927L123.748 165.951Z" stroke="#1268B7" stroke-width="2.175" stroke-linecap="round" stroke-linejoin="round"/>
<path d="M149.977 175.787C161.685 174.739 170.862 164.9 170.862 152.918C170.862 140.937 161.685 131.097 149.977 130.049C149.481 130.004 148.988 130.415 148.988 131.044L148.988 174.793C148.988 175.421 149.481 175.832 149.977 175.787Z" stroke="#1268B7" stroke-width="2.175" stroke-linecap="round" stroke-linejoin="round"/>
<path d="M226.2 168.019C226.2 171.923 221.575 175.088 215.869 175.088C210.163 175.088 205.538 171.923 205.538 168.019" stroke="#1268B7" stroke-width="2.175" stroke-linecap="round" stroke-linejoin="round"/>
<path d="M148.987 143.006H151.706C154.409 143.006 156.6 145.197 156.6 147.9C156.6 150.603 154.409 152.794 151.706 152.794H148.987V143.006Z" fill="#F9CD77" stroke="#1268B7" stroke-width="2.175" stroke-linecap="round" stroke-linejoin="round"/>
<path d="M109.686 351.842C109.035 351.545 115.379 334.415 117.626 328.409C118.044 327.291 119.318 326.775 120.405 327.27C121.466 327.753 121.922 329.006 121.402 330.05C118.58 335.721 110.339 352.139 109.686 351.842Z" fill="#1268B7"/>
<mask id="path-37-inside-1_946:37974" fill="white">
<path fill-rule="evenodd" clip-rule="evenodd" d="M133.295 313.077L137.757 313.049C139.505 313.037 140.014 310.657 138.423 309.933L122.506 302.684C120.915 301.959 119.454 303.905 120.592 305.231L123.5 308.616L117.348 320.674C113.389 320.22 109.457 320.588 106.841 320.98C105.526 321.177 105.183 322.701 106.287 323.442C108.771 325.11 113.092 327.704 119.407 330.45C125.661 333.169 130.441 334.776 133.337 335.643C134.63 336.03 135.632 334.774 134.938 333.617C133.547 331.299 131.281 328.011 128.333 325.396L133.295 313.077Z"/>
</mask>
<path fill-rule="evenodd" clip-rule="evenodd" d="M133.295 313.077L137.757 313.049C139.505 313.037 140.014 310.657 138.423 309.933L122.506 302.684C120.915 301.959 119.454 303.905 120.592 305.231L123.5 308.616L117.348 320.674C113.389 320.22 109.457 320.588 106.841 320.98C105.526 321.177 105.183 322.701 106.287 323.442C108.771 325.11 113.092 327.704 119.407 330.45C125.661 333.169 130.441 334.776 133.337 335.643C134.63 336.03 135.632 334.774 134.938 333.617C133.547 331.299 131.281 328.011 128.333 325.396L133.295 313.077Z" fill="white"/>
<path d="M133.295 313.077L133.281 310.902C132.399 310.908 131.607 311.446 131.278 312.265L133.295 313.077ZM137.757 313.049L137.743 310.874L137.743 310.874L137.757 313.049ZM138.423 309.933L139.324 307.954L138.423 309.933ZM122.506 302.684L121.605 304.663L122.506 302.684ZM120.592 305.231L122.242 303.814L120.592 305.231ZM123.5 308.616L125.437 309.605C125.838 308.819 125.725 307.868 125.15 307.199L123.5 308.616ZM117.348 320.674L117.101 322.835C118.002 322.938 118.873 322.47 119.285 321.662L117.348 320.674ZM106.841 320.98L106.519 318.829L106.519 318.829L106.841 320.98ZM106.287 323.442L107.499 321.636L107.499 321.636L106.287 323.442ZM119.407 330.45L120.274 328.455L120.274 328.455L119.407 330.45ZM133.337 335.643L132.714 337.726L133.337 335.643ZM134.938 333.617L133.073 334.736L134.938 333.617ZM128.333 325.396L126.315 324.583C125.972 325.436 126.202 326.413 126.89 327.023L128.333 325.396ZM133.309 315.252L137.771 315.224L137.743 310.874L133.281 310.902L133.309 315.252ZM137.771 315.224C141.85 315.197 143.036 309.644 139.324 307.954L137.521 311.912C137.445 311.878 137.328 311.782 137.258 311.628C137.198 311.497 137.198 311.383 137.215 311.304C137.232 311.225 137.278 311.121 137.387 311.025C137.514 310.913 137.66 310.874 137.743 310.874L137.771 315.224ZM139.324 307.954L123.408 300.704L121.605 304.663L137.521 311.912L139.324 307.954ZM123.408 300.704C119.696 299.014 116.285 303.554 118.943 306.648L122.242 303.814C122.297 303.877 122.363 304.013 122.362 304.182C122.362 304.327 122.313 304.431 122.265 304.495C122.216 304.559 122.13 304.635 121.992 304.676C121.83 304.724 121.681 304.698 121.605 304.663L123.408 300.704ZM118.943 306.648L121.85 310.033L125.15 307.199L122.242 303.814L118.943 306.648ZM119.285 321.662L125.437 309.605L121.562 307.628L115.411 319.685L119.285 321.662ZM117.595 318.513C113.371 318.029 109.229 318.423 106.519 318.829L107.163 323.131C109.685 322.754 113.407 322.412 117.101 322.835L117.595 318.513ZM106.519 318.829C105.009 319.056 103.852 320.121 103.535 321.529C103.218 322.937 103.807 324.396 105.075 325.247L107.499 321.636C107.561 321.677 107.665 321.776 107.735 321.947C107.803 322.113 107.82 322.302 107.779 322.485C107.738 322.668 107.642 322.831 107.509 322.952C107.373 323.076 107.236 323.12 107.163 323.131L106.519 318.829ZM105.075 325.247C107.662 326.984 112.098 329.644 118.54 332.444L120.274 328.455C114.087 325.765 109.881 323.235 107.499 321.636L105.075 325.247ZM118.54 332.444C124.878 335.2 129.74 336.836 132.714 337.726L133.961 333.559C131.142 332.715 126.444 331.138 120.274 328.455L118.54 332.444ZM132.714 337.726C134.19 338.168 135.694 337.686 136.587 336.56C137.486 335.426 137.607 333.838 136.803 332.498L133.073 334.736C133.033 334.669 132.98 334.532 132.991 334.346C133.002 334.167 133.069 333.995 133.179 333.857C133.421 333.552 133.778 333.504 133.961 333.559L132.714 337.726ZM136.803 332.498C135.359 330.092 132.96 326.593 129.776 323.768L126.89 327.023C129.602 329.429 131.735 332.506 133.073 334.736L136.803 332.498ZM131.278 312.265L126.315 324.583L130.35 326.208L135.313 313.89L131.278 312.265Z" fill="#1268B7" mask="url(#path-37-inside-1_946:37974)"/>
<rect x="112.553" y="56.54" width="85.4135" height="61.5652" rx="3.2625" transform="rotate(-3 112.553 56.54)" fill="white" stroke="#1268B7" stroke-width="2.175" stroke-linecap="round" stroke-linejoin="round"/>
<line x1="136.151" y1="109.137" x2="191.57" y2="106.233" stroke="#A2C8EC" stroke-width="2.175" stroke-linecap="round" stroke-linejoin="round"/>
<path d="M124.328 107.093C124.284 106.257 125.161 105.688 125.907 106.068L130.797 108.559C131.543 108.939 131.598 109.984 130.896 110.44L126.293 113.429C125.591 113.885 124.659 113.41 124.615 112.574L124.328 107.093Z" fill="white" stroke="#A2C8EC" stroke-width="2.175" stroke-linecap="round" stroke-linejoin="round"/>
<circle cx="164.253" cy="86.1749" r="13.2215" transform="rotate(-3 164.253 86.1749)" stroke="#FCB3C2" stroke-width="2.175" stroke-linecap="round" stroke-linejoin="round"/>
<path d="M146.493 63.5625C146.873 62.8166 147.918 62.7618 148.374 63.4639L161.859 84.2293C162.315 84.9314 161.84 85.8637 161.004 85.9076L136.278 87.2034C135.442 87.2472 134.872 86.3696 135.252 85.6237L146.493 63.5625Z" stroke="#F9CD77" stroke-width="2.175" stroke-linecap="round" stroke-linejoin="round"/>
<path d="M221.345 205.462C220.071 204.188 220.071 202.122 221.345 200.848L243.261 178.932C244.535 177.658 246.601 177.658 247.875 178.932L260.215 191.273C251.788 200.505 242.917 209.376 233.686 217.803L221.345 205.462Z" fill="white" stroke="#1268B7" stroke-width="2.175" stroke-linecap="round" stroke-linejoin="round"/>
<path d="M149.259 93.525V129.684L161.494 115.819" stroke="#1268B7" stroke-width="2.175" stroke-linecap="round"/>
<circle cx="212.063" cy="144.638" r="1.0875" fill="#1268B7"/>
<circle cx="217.5" cy="147.9" r="1.0875" fill="#1268B7"/>
<path d="M215.325 146.269L210.431 148.589L213.31 150.619" stroke="#1268B7" stroke-width="1.63125" stroke-linecap="round" stroke-linejoin="round"/>
<path d="M209.888 152.794C210.613 153.881 212.878 155.73 216.141 154.425" stroke="#1268B7" stroke-width="1.63125" stroke-linecap="round" stroke-linejoin="round"/>
<path d="M206.625 138.939C207.512 137.403 208.72 136.071 210.18 135.021C211.64 133.971 213.323 133.223 215.134 132.819C216.944 132.416 218.846 132.365 220.732 132.669C222.617 132.974 224.449 133.628 226.122 134.594C227.795 135.56 229.277 136.819 230.483 138.299C231.69 139.78 232.597 141.453 233.152 143.222C233.708 144.992 233.902 146.824 233.722 148.613C233.543 150.403 232.994 152.115 232.107 153.651L219.366 146.295L206.625 138.939Z" fill="#FCB3C2"/>
<circle cx="215.597" cy="179.709" r="1.35938" fill="#1268B7"/>
<circle cx="215.597" cy="184.603" r="1.35938" fill="#1268B7"/>
</svg>
