<svg width="33" height="33" viewBox="0 0 33 33" fill="none" xmlns="http://www.w3.org/2000/svg">
<g clip-path="url(#clip0_1346:38995)">
<path fill-rule="evenodd" clip-rule="evenodd" d="M0.5 16.7129C0.5 24.6675 6.27733 31.2822 13.8333 32.6235V21.0675H9.83333V16.6235H13.8333V13.0675C13.8333 9.06754 16.4107 6.8462 20.056 6.8462C21.2107 6.8462 22.456 7.02354 23.6107 7.20087V11.2902H21.5667C19.6107 11.2902 19.1667 12.2675 19.1667 13.5129V16.6235H23.4333L22.7227 21.0675H19.1667V32.6235C26.7227 31.2822 32.5 24.6689 32.5 16.7129C32.5 7.86354 25.3 0.623535 16.5 0.623535C7.7 0.623535 0.5 7.86354 0.5 16.7129Z" fill="#2D5FBE"/>
</g>
<defs>
<clipPath id="clip0_1346:38995">
<rect width="32" height="32" fill="white" transform="translate(0.5 0.623535)"/>
</clipPath>
</defs>
</svg>
