<svg width="33" height="33" viewBox="0 0 33 33" fill="none" xmlns="http://www.w3.org/2000/svg">
    <g clip-path="url(#clip0_1346:38998)">
        <path fill-rule="evenodd" clip-rule="evenodd" d="M16.5 0.623535C7.66267 0.623535 0.5 7.78754 0.5 16.6235C0.5 25.4595 7.66267 32.6235 16.5 32.6235C25.336 32.6235 32.5 25.4595 32.5 16.6235C32.5 7.78754 25.336 0.623535 16.5 0.623535ZM16.6867 25.9809C11.5293 25.9809 7.35333 21.7942 7.35333 16.6235C7.35333 11.4529 11.5293 7.2662 16.6867 7.2662C19.2067 7.2662 21.3133 8.19554 22.9293 9.70487L20.2973 12.3422V12.3369C19.3173 11.4009 18.0747 10.9209 16.6867 10.9209C13.6067 10.9209 11.104 13.5289 11.104 16.6182C11.104 19.7049 13.6067 22.3209 16.6867 22.3209C19.4813 22.3209 21.3827 20.7182 21.7747 18.5182H16.6867V14.8689H25.4667C25.584 15.4955 25.6467 16.1489 25.6467 16.8342C25.6467 22.1809 22.0773 25.9809 16.6867 25.9809Z" fill="#A93636"/>
    </g>
    <defs>
        <clipPath id="clip0_1346:38998">
            <rect width="32" height="32" fill="white" transform="translate(0.5 0.623535)"/>
        </clipPath>
    </defs>
</svg>
