<svg width="43" height="39" viewBox="0 0 43 39" fill="none" xmlns="http://www.w3.org/2000/svg"><path fill-rule="evenodd" clip-rule="evenodd" d="M4.5 0C2.01472 0 0 2.01472 0 4.5V34.5C0 36.9853 2.01472 39 4.5 39C6.98528 39 9 36.9853 9 34.5L9 20C9 17.7909 10.7909 16 13 16C15.2091 16 17 17.7909 17 20V31.4998C17 33.9851 19.0147 35.9998 21.5 35.9998C23.9853 35.9998 26 33.9851 26 31.4998L26 23C26 20.7909 27.7909 19 30 19C32.2091 19 34 20.7909 34 23L34 34.4998C34 36.9851 36.0147 38.9998 38.5 38.9998C40.9853 38.9998 43 36.9851 43 34.4998L43 8.49984C43 6.01456 40.9853 3.99984 38.5 3.99984C36.0147 3.99984 34 6.01456 34 8.49984V9C34 11.2091 32.2091 13 30 13C27.7909 13 26 11.2091 26 9V8.49984C26 6.01456 23.9853 3.99984 21.5 3.99984L20.5001 3.99984C18.567 3.99984 17 5.56688 17 7.49992C17 9.43296 15.433 11 13.4999 11H13C10.7909 11 9 9.20914 9 7L9 4.5C9 2.01472 6.98528 0 4.5 0Z" fill="#4592D9"/></svg>