<svg width="24" height="24" viewBox="0 0 24 24" fill="none" xmlns="http://www.w3.org/2000/svg">
    <circle cx="12" cy="12" r="10" stroke-width="2"/>
    <path fill-rule="evenodd" clip-rule="evenodd" d="M17.8838 6.11578C18.2356 6.4675 18.2753 7.02424 17.9771 7.42236L13.5596 13.3205C13.5102 13.3903 13.4517 13.4539 13.3851 13.5096C13.3677 13.5242 13.3499 13.5382 13.3316 13.5515L7.42244 17.9773C7.02432 18.2754 6.46758 18.2357 6.11586 17.884C5.76415 17.5322 5.7244 16.9755 6.02257 16.5774L10.4401 10.6792C10.4895 10.6094 10.5481 10.5457 10.6147 10.49C10.6321 10.4755 10.6498 10.4616 10.6681 10.4483L16.5773 6.02249C16.9754 5.72432 17.5321 5.76407 17.8838 6.11578ZM11.2694 12.7312C11.6873 13.1492 12.365 13.1492 12.783 12.7312C13.201 12.3133 13.201 11.6356 12.783 11.2176C12.365 10.7996 11.6873 10.7996 11.2694 11.2176C10.8514 11.6356 10.8514 12.3133 11.2694 12.7312Z"/>
    <rect x="13" y="5" width="2" height="3" rx="1" transform="rotate(180 13 5)" />
    <rect x="19" y="13" width="2" height="3" rx="1" transform="rotate(-90 19 13)"/>
    <rect x="13" y="22" width="2" height="3" rx="1" transform="rotate(180 13 22)"/>
    <rect x="2" y="13" width="2" height="3" rx="1" transform="rotate(-90 2 13)"/>
</svg>