<svg width="33" height="33" viewBox="0 0 33 33" fill="none" xmlns="http://www.w3.org/2000/svg">
<g clip-path="url(#clip0_1346:39001)">
<path d="M16.5 0.623535C7.66429 0.623535 0.5 7.78782 0.5 16.6235C0.5 25.4592 7.66429 32.6235 16.5 32.6235C25.3357 32.6235 32.5 25.4592 32.5 16.6235C32.5 7.78782 25.3357 0.623535 16.5 0.623535ZM24.1893 12.6843C24.2 12.8521 24.2 13.0271 24.2 13.1985C24.2 18.4414 20.2071 24.4807 12.9107 24.4807C10.6607 24.4807 8.575 23.8271 6.81786 22.7021C7.13929 22.7378 7.44643 22.7521 7.775 22.7521C9.63214 22.7521 11.3393 22.1235 12.7 21.0592C10.9571 21.0235 9.49286 19.8807 8.99286 18.3092C9.60357 18.3985 10.1536 18.3985 10.7821 18.2378C9.88474 18.0555 9.07812 17.5681 8.49934 16.8585C7.92056 16.1488 7.60531 15.2607 7.60714 14.345V14.295C8.13214 14.5914 8.75 14.7735 9.39643 14.7985C8.85301 14.4364 8.40735 13.9457 8.09897 13.3701C7.79059 12.7944 7.62901 12.1516 7.62857 11.4985C7.62857 10.7592 7.82143 10.0842 8.16786 9.49854C9.16394 10.7247 10.4069 11.7276 11.8159 12.442C13.225 13.1564 14.7686 13.5662 16.3464 13.645C15.7857 10.9485 17.8 8.76639 20.2214 8.76639C21.3643 8.76639 22.3929 9.24496 23.1179 10.0164C24.0143 9.84854 24.8714 9.51282 25.6357 9.06282C25.3393 9.98068 24.7179 10.7557 23.8929 11.245C24.6929 11.1592 25.4643 10.9378 26.1786 10.6271C25.6393 11.42 24.9643 12.1235 24.1893 12.6843Z" fill="#1A97DD"/>
</g>
<defs>
<clipPath id="clip0_1346:39001">
<rect width="32" height="32" fill="white" transform="translate(0.5 0.623535)"/>
</clipPath>
</defs>
</svg>
