<svg width="12" height="9" viewBox="0 0 12 9" fill="none" xmlns="http://www.w3.org/2000/svg">
    <g clip-path="url(#clip0)">
    <path d="M11.7528 1.81435C11.6144 1.30047 11.2092 0.895294 10.6952 0.756941C9.75614 0.5 5.99997 0.5 5.99997 0.5C5.99997 0.5 2.24381 0.5 1.30477 0.747059C0.800656 0.885412 0.385501 1.30047 0.247116 1.81435C0 2.75318 0 4.7 0 4.7C0 4.7 0 6.65671 0.247116 7.58565C0.385501 8.09953 0.790771 8.50471 1.30477 8.64306C2.2537 8.9 5.99997 8.9 5.99997 8.9C5.99997 8.9 9.75614 8.9 10.6952 8.65294C11.2092 8.51459 11.6144 8.10941 11.7528 7.59553C11.9999 6.65671 11.9999 4.70988 11.9999 4.70988C11.9999 4.70988 12.0098 2.75318 11.7528 1.81435Z" fill="#FF0000"/>
    <path d="M7.9275 4.70044L4.80396 2.90186V6.49903L7.9275 4.70044Z" fill="white"/>
    </g>
    <defs>
    <clipPath id="clip0">
    <rect width="12" height="8.4" fill="white" transform="translate(0 0.5)"/>
    </clipPath>
    </defs>
</svg>
    